<svg xmlns="http://www.w3.org/2000/svg" width="20" height="20" fill="none" viewBox="0 0 20 20"><path fill="#B7C7CC" d="M10 11C10.5178 11 11 10.5523 11 10C11 9.44772 10.5178 9 10 9C9.48223 9 9 9.44772 9 10C9 10.5523 9.48223 11 10 11Z"/><path fill="#B7C7CC" d="M16 11C16.5178 11 17 10.5523 17 10C17 9.44772 16.5178 9 16 9C15.4822 9 15 9.44772 15 10C15 10.5523 15.4822 11 16 11Z"/><path fill="#B7C7CC" d="M4 11C4.51777 11 5 10.5523 5 10C5 9.44772 4.51777 9 4 9C3.48223 9 3 9.44772 3 10C3 10.5523 3.48223 11 4 11Z"/><path stroke="#B7C7CC" stroke-linecap="round" stroke-linejoin="round" stroke-width="2" d="M10 11C10.5178 11 11 10.5523 11 10C11 9.44772 10.5178 9 10 9C9.48223 9 9 9.44772 9 10C9 10.5523 9.48223 11 10 11Z"/><path stroke="#B7C7CC" stroke-linecap="round" stroke-linejoin="round" stroke-width="2" d="M16 11C16.5178 11 17 10.5523 17 10C17 9.44772 16.5178 9 16 9C15.4822 9 15 9.44772 15 10C15 10.5523 15.4822 11 16 11Z"/><path stroke="#B7C7CC" stroke-linecap="round" stroke-linejoin="round" stroke-width="2" d="M4 11C4.51777 11 5 10.5523 5 10C5 9.44772 4.51777 9 4 9C3.48223 9 3 9.44772 3 10C3 10.5523 3.48223 11 4 11Z"/></svg>